<svg width="1281" height="974" viewBox="0 0 1281 974" fill="none" xmlns="http://www.w3.org/2000/svg">
<g opacity="0.3">
<mask id="path-1-inside-1_234_11576" fill="white">
<path d="M7.43219 463.716C8.24419 466.861 9.26006 470.599 9.68402 472.03C10.1148 473.455 11.3997 477.472 12.5443 480.956C13.6934 484.439 16.0357 490.706 17.7529 494.881C19.4708 499.056 22.2325 505.221 23.8888 508.581C25.5435 511.936 28.6064 517.689 30.6971 521.358C32.7877 525.027 36.272 530.682 38.4505 533.921C40.6254 537.165 43.8368 541.737 45.587 544.087C47.3388 546.441 51.0092 551.008 53.7439 554.243C56.4785 557.478 60.564 562.065 62.8223 564.443C65.0843 566.815 69.0529 570.753 71.639 573.188C74.2205 575.625 78.8981 579.73 82.0263 582.312C85.1543 584.894 89.9155 588.635 92.6074 590.629C95.298 592.619 101.396 596.693 106.161 599.677C110.925 602.657 117.562 606.535 120.913 608.283C124.26 610.037 129.615 612.676 132.814 614.153C136.007 615.626 141.715 618.012 145.492 619.449C149.269 620.887 155.565 623.065 159.482 624.291C163.399 625.512 170.823 627.477 175.984 628.654C181.141 629.832 189.252 631.332 194.008 631.985C198.76 632.644 205.668 633.402 209.355 633.676C213.042 633.95 219.485 634.209 223.672 634.251C227.859 634.293 234.537 634.124 238.518 633.882C242.494 633.635 248.411 633.131 251.663 632.757C254.915 632.387 260.744 631.539 264.623 630.876C268.499 630.219 274.69 628.943 278.378 628.053C282.066 627.162 288.466 625.37 292.602 624.072C296.737 622.775 302.375 620.844 305.125 619.787L310.135 617.856L316.247 617.628C319.613 617.5 325.434 617.453 329.193 617.523C332.952 617.593 339.116 617.914 342.894 618.232C346.673 618.55 353.391 619.425 357.826 620.176C362.261 620.923 369.059 622.376 372.931 623.411C376.806 624.44 383.47 626.553 387.748 628.107C392.023 629.661 398.349 632.253 401.803 633.864C405.257 635.471 412.241 639.32 417.322 642.411C422.401 645.502 428.81 649.774 431.555 651.906C434.3 654.035 438.621 657.568 441.158 659.757C443.689 661.947 448.199 666.194 451.176 669.198C454.15 672.207 459.27 677.886 462.55 681.824C465.83 685.762 470.774 692.193 473.535 696.119C476.295 700.042 480.309 706.13 482.45 709.651C484.59 713.167 488.449 720.093 491.026 725.037C493.604 729.98 496.95 736.798 498.458 740.195C499.969 743.585 502.367 749.271 503.787 752.825C505.212 756.378 507.62 762.856 509.146 767.22C511.195 773.097 513.322 780.859 517.353 797.126C521.682 814.606 523.282 820.375 525.183 825.352C526.494 828.791 528.906 834.701 530.542 838.48C532.174 842.261 535.177 848.56 537.216 852.475C539.249 856.391 542.644 862.403 544.753 865.835C546.867 869.266 550.657 875.014 553.182 878.614C555.711 882.212 560.61 888.542 564.07 892.679C567.53 896.816 572.426 902.321 574.953 904.912C577.48 907.499 581.306 911.243 583.454 913.228C585.601 915.213 588.813 918.079 590.599 919.594C592.38 921.111 596.538 924.431 599.838 926.971C603.138 929.512 609.092 933.763 613.068 936.418C617.049 939.071 623.705 943.086 627.856 945.334C632.012 947.585 637.815 950.567 640.746 951.961C643.682 953.355 649.02 955.679 652.617 957.124C656.21 958.576 661.505 960.556 664.39 961.532C667.269 962.504 672.569 964.144 676.16 965.171C679.751 966.198 685.81 967.694 689.626 968.499C693.44 969.299 699.186 970.36 702.389 970.853C705.591 971.342 711.344 972.036 715.167 972.394C718.99 972.747 725.288 973.162 729.162 973.311C733.04 973.458 739.532 973.461 743.591 973.311C747.657 973.164 753.984 972.762 757.664 972.421C761.338 972.08 767.21 971.384 770.706 970.88C774.204 970.376 782.765 968.575 789.737 966.883C796.703 965.191 805.139 962.86 808.479 961.7C811.818 960.544 817.35 958.468 820.776 957.089C824.197 955.706 829.456 953.427 832.457 952.02C835.458 950.618 840.332 948.169 843.289 946.585C846.247 945.002 851.44 941.994 854.832 939.905C858.222 937.811 863.233 934.529 865.971 932.603C868.704 930.679 873.433 927.156 876.476 924.777C879.517 922.393 884.432 918.238 887.398 915.543C890.364 912.848 894.705 908.686 897.049 906.284C899.389 903.888 903.096 899.909 905.281 897.44C907.468 894.975 910.825 890.974 912.743 888.549C914.662 886.129 918.016 881.654 920.2 878.597C922.381 875.547 926.292 869.569 928.881 865.321C931.473 861.066 935.113 854.597 936.971 850.946C938.833 847.289 941.775 840.995 943.508 836.955C945.246 832.913 947.676 826.738 948.908 823.24C950.143 819.735 951.949 814.056 952.932 810.617C953.909 807.175 955.333 801.655 956.094 798.347C956.852 795.044 958.028 789.062 958.696 785.057C959.365 781.056 960.274 773.934 960.718 769.234C961.16 764.529 961.568 756.344 961.622 751.04C961.676 745.735 961.487 738.034 961.209 733.925C960.925 729.817 960.316 723.24 959.854 719.316C959.206 713.828 958.101 708.425 955.076 695.92C952.643 685.859 950.379 677.532 949.135 674.072C948.029 670.999 945.51 664.669 943.531 660C941.549 655.337 938.071 647.979 935.795 643.651C933.52 639.327 929.936 633.013 927.834 629.629C925.73 626.241 921.92 620.558 919.366 617.002C916.815 613.439 912.173 607.502 909.052 603.803C905.932 600.105 901.977 595.597 900.271 593.784C898.564 591.97 894.47 587.951 891.176 584.852C887.882 581.753 883.14 577.508 880.636 575.412C878.129 573.322 873.231 569.498 869.748 566.916C866.262 564.339 859.125 559.616 853.895 556.425C848.661 553.24 841.155 549.041 837.218 547.108C833.278 545.168 827.248 542.394 823.821 540.938C820.389 539.482 814.717 537.285 811.217 536.049C807.712 534.813 801.91 532.961 798.319 531.934C794.728 530.907 788.185 529.296 783.78 528.355C779.374 527.415 771.877 526.106 767.123 525.442C762.364 524.78 755.353 524.052 751.54 523.823C747.723 523.595 740.958 523.405 736.501 523.403C732.045 523.402 725.148 523.628 721.18 523.903C717.207 524.179 710.541 524.881 706.368 525.458C702.19 526.041 693.344 527.602 686.706 528.93C680.066 530.258 670.668 531.842 665.823 532.451C660.984 533.059 653.966 533.73 650.237 533.946C646.511 534.158 640.611 534.339 637.135 534.347C633.653 534.357 627.69 534.195 623.883 533.99C620.072 533.786 613.657 533.161 609.622 532.602C605.586 532.037 599.156 530.894 595.334 530.06C591.511 529.226 585.462 527.647 581.895 526.548C578.322 525.451 573.052 523.637 570.173 522.518C567.294 521.4 562.15 519.15 558.741 517.517C555.332 515.884 550.207 513.209 547.356 511.582C544.509 509.949 539.387 506.661 535.972 504.275C532.562 501.888 527.572 498.142 524.889 495.953C522.199 493.761 517.839 489.918 515.202 487.419C512.559 484.917 508.96 481.355 507.213 479.501C505.462 477.647 501.984 473.707 499.487 470.744C496.991 467.78 493.88 463.953 492.577 462.239C491.279 460.524 488.698 456.938 486.844 454.264C484.996 451.594 481.569 446.325 479.237 442.557C476.904 438.789 473.313 432.486 471.248 428.546C469.183 424.607 466.071 418.315 464.324 414.562C462.582 410.808 459.98 404.822 458.536 401.253C457.099 397.689 454.907 391.957 453.666 388.512C452.425 385.071 450.726 380.076 449.889 377.419C449.052 374.761 446.61 365.556 444.468 356.963C442.321 348.37 439.767 339.143 438.792 336.459C437.81 333.77 435.868 328.713 434.468 325.221C433.067 321.723 430.739 316.364 429.294 313.312C427.848 310.256 425.204 305.039 423.419 301.71C421.629 298.383 418.118 292.43 415.613 288.472C413.108 284.518 409.053 278.575 406.598 275.263C404.143 271.95 399.191 265.836 395.588 261.673C391.991 257.513 386.711 251.823 383.862 249.036C381.007 246.246 376.638 242.182 374.145 240.003C371.656 237.823 367.5 234.386 364.915 232.37C362.333 230.349 357.688 226.92 354.599 224.749C351.508 222.572 345.16 218.529 340.486 215.755C335.814 212.985 329.011 209.259 325.377 207.473C321.744 205.687 316.199 203.144 313.058 201.821C309.921 200.497 305.256 198.652 302.695 197.719C300.136 196.791 295.327 195.169 292.009 194.121C288.691 193.069 280.918 191.082 274.734 189.703C268.552 188.328 260.667 186.814 257.21 186.342C253.755 185.875 247.797 185.235 243.969 184.924C240.143 184.617 233.574 184.314 229.376 184.254C225.175 184.196 218.733 184.291 215.058 184.464C211.385 184.642 205.018 185.155 200.906 185.607C196.798 186.058 188.701 187.309 182.92 188.394C174.924 189.889 170.003 191.084 162.381 193.385C156.867 195.053 149.119 197.653 145.159 199.171C141.197 200.685 134.889 203.356 131.137 205.107C127.384 206.853 121.629 209.739 118.35 211.517C115.069 213.291 109.688 216.425 106.4 218.479C103.11 220.529 97.9774 223.957 94.9976 226.093C92.0175 228.229 86.7244 232.309 83.2287 235.158C79.739 238.01 74.1999 242.889 70.9224 245.993C67.6469 249.103 62.359 254.518 59.1779 258.034C55.9916 261.552 51.3685 267.034 48.9003 270.215C46.4273 273.397 42.4666 278.815 40.0969 282.256C37.7214 285.693 33.8854 291.748 31.5709 295.707C29.2527 299.673 25.8368 306.021 23.9692 309.821C22.1057 313.615 19.6177 319.009 18.4328 321.804C17.2526 324.597 15.1315 330.124 13.7191 334.087C12.3066 338.05 10.4335 343.745 9.56097 346.742C8.6837 349.74 7.10596 356.047 6.05726 360.757C5.00832 365.467 3.5782 373.445 2.88402 378.49C2.1886 383.529 1.43677 390.755 1.21158 394.541C0.986981 398.327 0.781348 404.073 0.756761 407.309C0.732574 410.546 0.853972 416.197 1.0271 419.871C1.20037 423.546 1.71414 429.917 2.16922 434.024C2.62598 438.136 3.66467 445.21 4.48256 449.746C5.29501 454.283 6.62355 460.571 7.43219 463.716ZM836.244 275.158C837.801 282.021 839.868 290.066 840.831 293.033C841.8 295.997 843.615 301.142 844.876 304.455C846.131 307.771 848.389 313.257 849.892 316.654C851.395 320.046 854.152 325.752 856.019 329.334C857.886 332.911 861.298 338.918 863.609 342.681C865.914 346.44 869.88 352.434 872.421 355.995C874.956 359.556 879.392 365.315 882.277 368.792C885.161 372.269 889.715 377.427 892.402 380.258C895.093 383.083 900.46 388.276 904.336 391.79C908.207 395.306 913.983 400.202 917.168 402.665C920.349 405.133 926.095 409.298 929.938 411.924C933.774 414.547 940.454 418.662 944.781 421.07C949.106 423.473 955.621 426.848 959.259 428.567C962.895 430.282 968.702 432.822 972.158 434.21C975.609 435.6 981.973 437.873 986.297 439.264C990.614 440.656 997.785 442.682 1002.22 443.766C1006.67 444.85 1013.62 446.285 1017.68 446.96C1021.75 447.634 1028 448.505 1031.59 448.901C1035.17 449.296 1041.32 449.758 1045.25 449.932C1049.18 450.102 1055.35 450.194 1058.96 450.139C1062.57 450.078 1068.2 449.844 1071.49 449.613C1074.78 449.377 1080.79 448.788 1084.84 448.301C1090.56 447.61 1095.87 446.523 1108.48 443.464C1120.9 440.447 1126.32 438.928 1131.47 437.007C1135.17 435.628 1140.67 433.435 1143.7 432.138C1146.73 430.841 1151.85 428.474 1155.08 426.879C1158.32 425.284 1164.16 422.148 1168.07 419.907C1171.98 417.667 1177.82 414.046 1181.06 411.859C1184.28 409.668 1189.32 406.039 1192.26 403.792C1195.2 401.546 1199.24 398.315 1201.24 396.619C1203.25 394.922 1207.35 391.191 1210.37 388.329C1213.38 385.465 1218.52 380.191 1221.79 376.602C1225.06 373.018 1230.28 366.796 1233.38 362.772C1236.47 358.75 1240.92 352.565 1243.27 349.029C1245.62 345.497 1249.33 339.385 1251.54 335.452C1253.74 331.514 1256.95 325.334 1258.66 321.718C1260.37 318.097 1262.93 312.282 1264.33 308.793C1265.73 305.298 1267.96 299.178 1269.27 295.188C1270.59 291.193 1272.72 283.552 1274.01 278.204C1275.3 272.853 1276.91 265.08 1277.59 260.932C1278.27 256.783 1279.17 249.293 1279.59 244.289C1280.02 239.28 1280.39 231.498 1280.42 226.996C1280.44 222.488 1280.26 215.586 1280.01 211.653C1279.76 207.719 1279.27 201.944 1278.92 198.829C1278.57 195.713 1277.54 189.01 1276.64 183.94C1275.67 178.48 1273.99 171.146 1272.53 165.95C1271.17 161.124 1268.99 154.135 1267.66 150.422C1266.35 146.701 1264.2 141.107 1262.89 137.983C1261.58 134.858 1259.36 129.928 1257.96 127.028C1256.55 124.128 1254 119.243 1252.3 116.179C1250.6 113.109 1247.58 108.033 1245.6 104.894C1243.62 101.755 1240.1 96.5733 1237.78 93.3754C1235.46 90.1768 1231.93 85.5348 1229.94 83.0571C1227.94 80.5792 1224.38 76.4331 1222.01 73.844C1219.64 71.255 1215.46 66.9472 1212.72 64.2699C1209.99 61.5924 1205.7 57.6201 1203.2 55.4419C1200.71 53.2636 1195.95 49.4054 1192.65 46.8661C1189.34 44.3268 1183.61 40.2053 1179.9 37.7079C1176.19 35.2051 1169.68 31.232 1165.42 28.8707C1161.15 26.5134 1154.33 23.0218 1150.24 21.1115C1146.16 19.2017 1138.57 16.0828 1133.37 14.1848C1128.18 12.2864 1121.49 10.0264 1118.52 9.17321C1115.55 8.31514 1109.81 6.85109 1105.78 5.92252C1101.74 4.99287 1095.97 3.82126 1092.96 3.3183C1089.93 2.81203 1084.3 2.0279 1080.43 1.57433C1076.57 1.1207 1070.16 0.600806 1066.19 0.419014C1062.23 0.243127 1055.99 0.135999 1052.34 0.193205C1048.68 0.245932 1043.05 0.481805 1039.84 0.709428C1036.63 0.942153 1032.23 1.3284 1030.06 1.57134C1027.89 1.8092 1023.37 2.43122 1020.01 2.95122C1016.66 3.47238 1008.54 5.20589 1001.96 6.80789C994.885 8.52589 986.961 10.7737 982.538 12.3076C978.428 13.7304 972.376 16.0206 969.089 17.3907C965.801 18.7607 960.303 21.2452 956.874 22.9081C953.44 24.5723 947.535 27.6969 943.75 29.8512C939.965 32.0105 934.265 35.5156 931.082 37.6505C927.899 39.7852 923.373 42.96 921.023 44.7101C918.668 46.4562 913.969 50.2304 910.572 53.0905C907.182 55.9542 902.4 60.2035 899.952 62.5295C897.51 64.8591 893.423 68.9854 890.884 71.7033C888.339 74.4223 884.062 79.3287 881.379 82.6077C878.692 85.8879 874.797 90.9501 872.717 93.8503C870.642 96.754 867.069 102.082 864.786 105.689C862.508 109.3 859.089 115.153 857.2 118.695C855.306 122.239 852.409 128.076 850.754 131.668C849.1 135.259 846.39 141.826 844.725 146.27C843.063 150.709 840.676 157.892 839.414 162.227C838.158 166.563 836.362 173.723 835.427 178.131C834.498 182.544 833.297 189.129 832.762 192.763C832.232 196.401 831.507 202.84 831.154 207.078C830.8 211.316 830.487 218.891 830.451 223.913C830.419 228.933 830.653 236.506 830.969 240.749C831.289 244.985 831.966 251.656 832.481 255.572C832.99 259.484 834.684 268.297 836.244 275.158Z"/>
</mask>
<path d="M7.43219 463.716C8.24419 466.861 9.26006 470.599 9.68402 472.03C10.1148 473.455 11.3997 477.472 12.5443 480.956C13.6934 484.439 16.0357 490.706 17.7529 494.881C19.4708 499.056 22.2325 505.221 23.8888 508.581C25.5435 511.936 28.6064 517.689 30.6971 521.358C32.7877 525.027 36.272 530.682 38.4505 533.921C40.6254 537.165 43.8368 541.737 45.587 544.087C47.3388 546.441 51.0092 551.008 53.7439 554.243C56.4785 557.478 60.564 562.065 62.8223 564.443C65.0843 566.815 69.0529 570.753 71.639 573.188C74.2205 575.625 78.8981 579.73 82.0263 582.312C85.1543 584.894 89.9155 588.635 92.6074 590.629C95.298 592.619 101.396 596.693 106.161 599.677C110.925 602.657 117.562 606.535 120.913 608.283C124.26 610.037 129.615 612.676 132.814 614.153C136.007 615.626 141.715 618.012 145.492 619.449C149.269 620.887 155.565 623.065 159.482 624.291C163.399 625.512 170.823 627.477 175.984 628.654C181.141 629.832 189.252 631.332 194.008 631.985C198.76 632.644 205.668 633.402 209.355 633.676C213.042 633.95 219.485 634.209 223.672 634.251C227.859 634.293 234.537 634.124 238.518 633.882C242.494 633.635 248.411 633.131 251.663 632.757C254.915 632.387 260.744 631.539 264.623 630.876C268.499 630.219 274.69 628.943 278.378 628.053C282.066 627.162 288.466 625.37 292.602 624.072C296.737 622.775 302.375 620.844 305.125 619.787L310.135 617.856L316.247 617.628C319.613 617.5 325.434 617.453 329.193 617.523C332.952 617.593 339.116 617.914 342.894 618.232C346.673 618.55 353.391 619.425 357.826 620.176C362.261 620.923 369.059 622.376 372.931 623.411C376.806 624.44 383.47 626.553 387.748 628.107C392.023 629.661 398.349 632.253 401.803 633.864C405.257 635.471 412.241 639.32 417.322 642.411C422.401 645.502 428.81 649.774 431.555 651.906C434.3 654.035 438.621 657.568 441.158 659.757C443.689 661.947 448.199 666.194 451.176 669.198C454.15 672.207 459.27 677.886 462.55 681.824C465.83 685.762 470.774 692.193 473.535 696.119C476.295 700.042 480.309 706.13 482.45 709.651C484.59 713.167 488.449 720.093 491.026 725.037C493.604 729.98 496.95 736.798 498.458 740.195C499.969 743.585 502.367 749.271 503.787 752.825C505.212 756.378 507.62 762.856 509.146 767.22C511.195 773.097 513.322 780.859 517.353 797.126C521.682 814.606 523.282 820.375 525.183 825.352C526.494 828.791 528.906 834.701 530.542 838.48C532.174 842.261 535.177 848.56 537.216 852.475C539.249 856.391 542.644 862.403 544.753 865.835C546.867 869.266 550.657 875.014 553.182 878.614C555.711 882.212 560.61 888.542 564.07 892.679C567.53 896.816 572.426 902.321 574.953 904.912C577.48 907.499 581.306 911.243 583.454 913.228C585.601 915.213 588.813 918.079 590.599 919.594C592.38 921.111 596.538 924.431 599.838 926.971C603.138 929.512 609.092 933.763 613.068 936.418C617.049 939.071 623.705 943.086 627.856 945.334C632.012 947.585 637.815 950.567 640.746 951.961C643.682 953.355 649.02 955.679 652.617 957.124C656.21 958.576 661.505 960.556 664.39 961.532C667.269 962.504 672.569 964.144 676.16 965.171C679.751 966.198 685.81 967.694 689.626 968.499C693.44 969.299 699.186 970.36 702.389 970.853C705.591 971.342 711.344 972.036 715.167 972.394C718.99 972.747 725.288 973.162 729.162 973.311C733.04 973.458 739.532 973.461 743.591 973.311C747.657 973.164 753.984 972.762 757.664 972.421C761.338 972.08 767.21 971.384 770.706 970.88C774.204 970.376 782.765 968.575 789.737 966.883C796.703 965.191 805.139 962.86 808.479 961.7C811.818 960.544 817.35 958.468 820.776 957.089C824.197 955.706 829.456 953.427 832.457 952.02C835.458 950.618 840.332 948.169 843.289 946.585C846.247 945.002 851.44 941.994 854.832 939.905C858.222 937.811 863.233 934.529 865.971 932.603C868.704 930.679 873.433 927.156 876.476 924.777C879.517 922.393 884.432 918.238 887.398 915.543C890.364 912.848 894.705 908.686 897.049 906.284C899.389 903.888 903.096 899.909 905.281 897.44C907.468 894.975 910.825 890.974 912.743 888.549C914.662 886.129 918.016 881.654 920.2 878.597C922.381 875.547 926.292 869.569 928.881 865.321C931.473 861.066 935.113 854.597 936.971 850.946C938.833 847.289 941.775 840.995 943.508 836.955C945.246 832.913 947.676 826.738 948.908 823.24C950.143 819.735 951.949 814.056 952.932 810.617C953.909 807.175 955.333 801.655 956.094 798.347C956.852 795.044 958.028 789.062 958.696 785.057C959.365 781.056 960.274 773.934 960.718 769.234C961.16 764.529 961.568 756.344 961.622 751.04C961.676 745.735 961.487 738.034 961.209 733.925C960.925 729.817 960.316 723.24 959.854 719.316C959.206 713.828 958.101 708.425 955.076 695.92C952.643 685.859 950.379 677.532 949.135 674.072C948.029 670.999 945.51 664.669 943.531 660C941.549 655.337 938.071 647.979 935.795 643.651C933.52 639.327 929.936 633.013 927.834 629.629C925.73 626.241 921.92 620.558 919.366 617.002C916.815 613.439 912.173 607.502 909.052 603.803C905.932 600.105 901.977 595.597 900.271 593.784C898.564 591.97 894.47 587.951 891.176 584.852C887.882 581.753 883.14 577.508 880.636 575.412C878.129 573.322 873.231 569.498 869.748 566.916C866.262 564.339 859.125 559.616 853.895 556.425C848.661 553.24 841.155 549.041 837.218 547.108C833.278 545.168 827.248 542.394 823.821 540.938C820.389 539.482 814.717 537.285 811.217 536.049C807.712 534.813 801.91 532.961 798.319 531.934C794.728 530.907 788.185 529.296 783.78 528.355C779.374 527.415 771.877 526.106 767.123 525.442C762.364 524.78 755.353 524.052 751.54 523.823C747.723 523.595 740.958 523.405 736.501 523.403C732.045 523.402 725.148 523.628 721.18 523.903C717.207 524.179 710.541 524.881 706.368 525.458C702.19 526.041 693.344 527.602 686.706 528.93C680.066 530.258 670.668 531.842 665.823 532.451C660.984 533.059 653.966 533.73 650.237 533.946C646.511 534.158 640.611 534.339 637.135 534.347C633.653 534.357 627.69 534.195 623.883 533.99C620.072 533.786 613.657 533.161 609.622 532.602C605.586 532.037 599.156 530.894 595.334 530.06C591.511 529.226 585.462 527.647 581.895 526.548C578.322 525.451 573.052 523.637 570.173 522.518C567.294 521.4 562.15 519.15 558.741 517.517C555.332 515.884 550.207 513.209 547.356 511.582C544.509 509.949 539.387 506.661 535.972 504.275C532.562 501.888 527.572 498.142 524.889 495.953C522.199 493.761 517.839 489.918 515.202 487.419C512.559 484.917 508.96 481.355 507.213 479.501C505.462 477.647 501.984 473.707 499.487 470.744C496.991 467.78 493.88 463.953 492.577 462.239C491.279 460.524 488.698 456.938 486.844 454.264C484.996 451.594 481.569 446.325 479.237 442.557C476.904 438.789 473.313 432.486 471.248 428.546C469.183 424.607 466.071 418.315 464.324 414.562C462.582 410.808 459.98 404.822 458.536 401.253C457.099 397.689 454.907 391.957 453.666 388.512C452.425 385.071 450.726 380.076 449.889 377.419C449.052 374.761 446.61 365.556 444.468 356.963C442.321 348.37 439.767 339.143 438.792 336.459C437.81 333.77 435.868 328.713 434.468 325.221C433.067 321.723 430.739 316.364 429.294 313.312C427.848 310.256 425.204 305.039 423.419 301.71C421.629 298.383 418.118 292.43 415.613 288.472C413.108 284.518 409.053 278.575 406.598 275.263C404.143 271.95 399.191 265.836 395.588 261.673C391.991 257.513 386.711 251.823 383.862 249.036C381.007 246.246 376.638 242.182 374.145 240.003C371.656 237.823 367.5 234.386 364.915 232.37C362.333 230.349 357.688 226.92 354.599 224.749C351.508 222.572 345.16 218.529 340.486 215.755C335.814 212.985 329.011 209.259 325.377 207.473C321.744 205.687 316.199 203.144 313.058 201.821C309.921 200.497 305.256 198.652 302.695 197.719C300.136 196.791 295.327 195.169 292.009 194.121C288.691 193.069 280.918 191.082 274.734 189.703C268.552 188.328 260.667 186.814 257.21 186.342C253.755 185.875 247.797 185.235 243.969 184.924C240.143 184.617 233.574 184.314 229.376 184.254C225.175 184.196 218.733 184.291 215.058 184.464C211.385 184.642 205.018 185.155 200.906 185.607C196.798 186.058 188.701 187.309 182.92 188.394C174.924 189.889 170.003 191.084 162.381 193.385C156.867 195.053 149.119 197.653 145.159 199.171C141.197 200.685 134.889 203.356 131.137 205.107C127.384 206.853 121.629 209.739 118.35 211.517C115.069 213.291 109.688 216.425 106.4 218.479C103.11 220.529 97.9774 223.957 94.9976 226.093C92.0175 228.229 86.7244 232.309 83.2287 235.158C79.739 238.01 74.1999 242.889 70.9224 245.993C67.6469 249.103 62.359 254.518 59.1779 258.034C55.9916 261.552 51.3685 267.034 48.9003 270.215C46.4273 273.397 42.4666 278.815 40.0969 282.256C37.7214 285.693 33.8854 291.748 31.5709 295.707C29.2527 299.673 25.8368 306.021 23.9692 309.821C22.1057 313.615 19.6177 319.009 18.4328 321.804C17.2526 324.597 15.1315 330.124 13.7191 334.087C12.3066 338.05 10.4335 343.745 9.56097 346.742C8.6837 349.74 7.10596 356.047 6.05726 360.757C5.00832 365.467 3.5782 373.445 2.88402 378.49C2.1886 383.529 1.43677 390.755 1.21158 394.541C0.986981 398.327 0.781348 404.073 0.756761 407.309C0.732574 410.546 0.853972 416.197 1.0271 419.871C1.20037 423.546 1.71414 429.917 2.16922 434.024C2.62598 438.136 3.66467 445.21 4.48256 449.746C5.29501 454.283 6.62355 460.571 7.43219 463.716ZM836.244 275.158C837.801 282.021 839.868 290.066 840.831 293.033C841.8 295.997 843.615 301.142 844.876 304.455C846.131 307.771 848.389 313.257 849.892 316.654C851.395 320.046 854.152 325.752 856.019 329.334C857.886 332.911 861.298 338.918 863.609 342.681C865.914 346.44 869.88 352.434 872.421 355.995C874.956 359.556 879.392 365.315 882.277 368.792C885.161 372.269 889.715 377.427 892.402 380.258C895.093 383.083 900.46 388.276 904.336 391.79C908.207 395.306 913.983 400.202 917.168 402.665C920.349 405.133 926.095 409.298 929.938 411.924C933.774 414.547 940.454 418.662 944.781 421.07C949.106 423.473 955.621 426.848 959.259 428.567C962.895 430.282 968.702 432.822 972.158 434.21C975.609 435.6 981.973 437.873 986.297 439.264C990.614 440.656 997.785 442.682 1002.22 443.766C1006.67 444.85 1013.62 446.285 1017.68 446.96C1021.75 447.634 1028 448.505 1031.59 448.901C1035.17 449.296 1041.32 449.758 1045.25 449.932C1049.18 450.102 1055.35 450.194 1058.96 450.139C1062.57 450.078 1068.2 449.844 1071.49 449.613C1074.78 449.377 1080.79 448.788 1084.84 448.301C1090.56 447.61 1095.87 446.523 1108.48 443.464C1120.9 440.447 1126.32 438.928 1131.47 437.007C1135.17 435.628 1140.67 433.435 1143.7 432.138C1146.73 430.841 1151.85 428.474 1155.08 426.879C1158.32 425.284 1164.16 422.148 1168.07 419.907C1171.98 417.667 1177.82 414.046 1181.06 411.859C1184.28 409.668 1189.32 406.039 1192.26 403.792C1195.2 401.546 1199.24 398.315 1201.24 396.619C1203.25 394.922 1207.35 391.191 1210.37 388.329C1213.38 385.465 1218.52 380.191 1221.79 376.602C1225.06 373.018 1230.28 366.796 1233.38 362.772C1236.47 358.75 1240.92 352.565 1243.27 349.029C1245.62 345.497 1249.33 339.385 1251.54 335.452C1253.74 331.514 1256.95 325.334 1258.66 321.718C1260.37 318.097 1262.93 312.282 1264.33 308.793C1265.73 305.298 1267.96 299.178 1269.27 295.188C1270.59 291.193 1272.72 283.552 1274.01 278.204C1275.3 272.853 1276.91 265.08 1277.59 260.932C1278.27 256.783 1279.17 249.293 1279.59 244.289C1280.02 239.28 1280.39 231.498 1280.42 226.996C1280.44 222.488 1280.26 215.586 1280.01 211.653C1279.76 207.719 1279.27 201.944 1278.92 198.829C1278.57 195.713 1277.54 189.01 1276.64 183.94C1275.67 178.48 1273.99 171.146 1272.53 165.95C1271.17 161.124 1268.99 154.135 1267.66 150.422C1266.35 146.701 1264.2 141.107 1262.89 137.983C1261.58 134.858 1259.36 129.928 1257.96 127.028C1256.55 124.128 1254 119.243 1252.3 116.179C1250.6 113.109 1247.58 108.033 1245.6 104.894C1243.62 101.755 1240.1 96.5733 1237.78 93.3754C1235.46 90.1768 1231.93 85.5348 1229.94 83.0571C1227.94 80.5792 1224.38 76.4331 1222.01 73.844C1219.64 71.255 1215.46 66.9472 1212.72 64.2699C1209.99 61.5924 1205.7 57.6201 1203.2 55.4419C1200.71 53.2636 1195.95 49.4054 1192.65 46.8661C1189.34 44.3268 1183.61 40.2053 1179.9 37.7079C1176.19 35.2051 1169.68 31.232 1165.42 28.8707C1161.15 26.5134 1154.33 23.0218 1150.24 21.1115C1146.16 19.2017 1138.57 16.0828 1133.37 14.1848C1128.18 12.2864 1121.49 10.0264 1118.52 9.17321C1115.55 8.31514 1109.81 6.85109 1105.78 5.92252C1101.74 4.99287 1095.97 3.82126 1092.96 3.3183C1089.93 2.81203 1084.3 2.0279 1080.43 1.57433C1076.57 1.1207 1070.16 0.600806 1066.19 0.419014C1062.23 0.243127 1055.99 0.135999 1052.34 0.193205C1048.68 0.245932 1043.05 0.481805 1039.84 0.709428C1036.63 0.942153 1032.23 1.3284 1030.06 1.57134C1027.89 1.8092 1023.37 2.43122 1020.01 2.95122C1016.66 3.47238 1008.54 5.20589 1001.96 6.80789C994.885 8.52589 986.961 10.7737 982.538 12.3076C978.428 13.7304 972.376 16.0206 969.089 17.3907C965.801 18.7607 960.303 21.2452 956.874 22.9081C953.44 24.5723 947.535 27.6969 943.75 29.8512C939.965 32.0105 934.265 35.5156 931.082 37.6505C927.899 39.7852 923.373 42.96 921.023 44.7101C918.668 46.4562 913.969 50.2304 910.572 53.0905C907.182 55.9542 902.4 60.2035 899.952 62.5295C897.51 64.8591 893.423 68.9854 890.884 71.7033C888.339 74.4223 884.062 79.3287 881.379 82.6077C878.692 85.8879 874.797 90.9501 872.717 93.8503C870.642 96.754 867.069 102.082 864.786 105.689C862.508 109.3 859.089 115.153 857.2 118.695C855.306 122.239 852.409 128.076 850.754 131.668C849.1 135.259 846.39 141.826 844.725 146.27C843.063 150.709 840.676 157.892 839.414 162.227C838.158 166.563 836.362 173.723 835.427 178.131C834.498 182.544 833.297 189.129 832.762 192.763C832.232 196.401 831.507 202.84 831.154 207.078C830.8 211.316 830.487 218.891 830.451 223.913C830.419 228.933 830.653 236.506 830.969 240.749C831.289 244.985 831.966 251.656 832.481 255.572C832.99 259.484 834.684 268.297 836.244 275.158Z" fill="url(#paint0_linear_234_11576)" stroke="white" stroke-opacity="0.1" stroke-width="2" mask="url(#path-1-inside-1_234_11576)"/>
</g>
<defs>
<linearGradient id="paint0_linear_234_11576" x1="60.1667" y1="680.933" x2="1323.21" y2="374.297" gradientUnits="userSpaceOnUse">
<stop stop-color="white" stop-opacity="0.1"/>
<stop offset="1" stop-color="white" stop-opacity="0.02"/>
</linearGradient>
</defs>
</svg>
