<svg width="24" height="25" viewBox="0 0 24 25" fill="none" xmlns="http://www.w3.org/2000/svg">
<path d="M7 20.6738H17M9 16.6738V20.6738M15 16.6738V20.6738M3 5.67383C3 5.40861 3.10536 5.15426 3.29289 4.96672C3.48043 4.77919 3.73478 4.67383 4 4.67383H20C20.2652 4.67383 20.5196 4.77919 20.7071 4.96672C20.8946 5.15426 21 5.40861 21 5.67383V15.6738C21 15.939 20.8946 16.1934 20.7071 16.3809C20.5196 16.5685 20.2652 16.6738 20 16.6738H4C3.73478 16.6738 3.48043 16.5685 3.29289 16.3809C3.10536 16.1934 3 15.939 3 15.6738V5.67383Z" stroke="white" stroke-width="2" stroke-linecap="round" stroke-linejoin="round"/>
<path d="M8 12.6738L11 9.67383L13 11.6738L16 8.67383" stroke="white" stroke-width="2" stroke-linecap="round" stroke-linejoin="round"/>
</svg>
