<svg width="24" height="25" viewBox="0 0 24 25" fill="none" xmlns="http://www.w3.org/2000/svg">
<path d="M12 2.67383C6.48 2.67383 2 7.15383 2 12.6738C2 18.1938 6.48 22.6738 12 22.6738C17.52 22.6738 22 18.1938 22 12.6738C22 7.15383 17.52 2.67383 12 2.67383ZM9.29 16.9638L5.7 13.3738C5.60742 13.2812 5.53398 13.1713 5.48387 13.0504C5.43377 12.9294 5.40798 12.7998 5.40798 12.6688C5.40798 12.5379 5.43377 12.4082 5.48387 12.2873C5.53398 12.1663 5.60742 12.0564 5.7 11.9638C5.79258 11.8712 5.90249 11.7978 6.02346 11.7477C6.14442 11.6976 6.27407 11.6718 6.405 11.6718C6.53593 11.6718 6.66558 11.6976 6.78654 11.7477C6.90751 11.7978 7.01742 11.8712 7.11 11.9638L10 14.8438L16.88 7.96383C17.067 7.77685 17.3206 7.67181 17.585 7.67181C17.8494 7.67181 18.103 7.77685 18.29 7.96383C18.477 8.15081 18.582 8.4044 18.582 8.66883C18.582 8.93325 18.477 9.18685 18.29 9.37383L10.7 16.9638C10.6075 17.0565 10.4976 17.1301 10.3766 17.1803C10.2557 17.2304 10.126 17.2563 9.995 17.2563C9.86403 17.2563 9.73435 17.2304 9.61338 17.1803C9.4924 17.1301 9.38251 17.0565 9.29 16.9638Z" fill="#31C48D"></path>
</svg>
