<svg width="24" height="25" viewBox="0 0 24 25" fill="none" xmlns="http://www.w3.org/2000/svg">
<path d="M9 5.67383H7C6.46957 5.67383 5.96086 5.88454 5.58579 6.25961C5.21071 6.63469 5 7.1434 5 7.67383V19.6738C5 20.2043 5.21071 20.713 5.58579 21.088C5.96086 21.4631 6.46957 21.6738 7 21.6738H17C17.5304 21.6738 18.0391 21.4631 18.4142 21.088C18.7893 20.713 19 20.2043 19 19.6738V7.67383C19 7.1434 18.7893 6.63469 18.4142 6.25961C18.0391 5.88454 17.5304 5.67383 17 5.67383H15" stroke="white" stroke-width="2" stroke-linecap="round" stroke-linejoin="round"/>
<path d="M9 5.67383C9 5.1434 9.21071 4.63469 9.58579 4.25961C9.96086 3.88454 10.4696 3.67383 11 3.67383H13C13.5304 3.67383 14.0391 3.88454 14.4142 4.25961C14.7893 4.63469 15 5.1434 15 5.67383C15 6.20426 14.7893 6.71297 14.4142 7.08804C14.0391 7.46311 13.5304 7.67383 13 7.67383H11C10.4696 7.67383 9.96086 7.46311 9.58579 7.08804C9.21071 6.71297 9 6.20426 9 5.67383Z" stroke="white" stroke-width="2" stroke-linecap="round" stroke-linejoin="round"/>
</svg>
