<svg width="32" height="33" viewBox="0 0 32 33" fill="none" xmlns="http://www.w3.org/2000/svg">
<path d="M15.7346 15.1251C12.708 14.3385 11.7346 13.5251 11.7346 12.2585C11.7346 10.8051 13.0813 9.7918 15.3346 9.7918C17.228 9.7918 18.1746 10.5118 18.5213 11.6585C18.6813 12.1918 19.1213 12.5918 19.6813 12.5918H20.0813C20.9613 12.5918 21.588 11.7251 21.2813 10.8985C20.7213 9.32513 19.4146 8.01846 17.3346 7.5118V6.5918C17.3346 5.48513 16.4413 4.5918 15.3346 4.5918C14.228 4.5918 13.3346 5.48513 13.3346 6.5918V7.4718C10.748 8.0318 8.66797 9.7118 8.66797 12.2851C8.66797 15.3651 11.2146 16.8985 14.9346 17.7918C18.268 18.5918 18.9346 19.7651 18.9346 21.0051C18.9346 21.9251 18.2813 23.3918 15.3346 23.3918C13.1346 23.3918 12.0013 22.6051 11.5613 21.4851C11.3613 20.9651 10.908 20.5918 10.3613 20.5918H9.98797C9.09464 20.5918 8.46797 21.4985 8.8013 22.3251C9.5613 24.1785 11.3346 25.2718 13.3346 25.6985V26.5918C13.3346 27.6985 14.228 28.5918 15.3346 28.5918C16.4413 28.5918 17.3346 27.6985 17.3346 26.5918V25.7251C19.9346 25.2318 22.0013 23.7251 22.0013 20.9918C22.0013 17.2051 18.7613 15.9118 15.7346 15.1251Z" fill="white"/>
</svg>
