<svg xmlns="http://www.w3.org/2000/svg" width="32" height="32" viewBox="0 0 32 32" fill="none">
<path d="M12 25.333V17.333C12 16.9794 11.8595 16.6402 11.6095 16.3902C11.3594 16.1402 11.0203 15.9997 10.6667 15.9997H5.33333C4.97971 15.9997 4.64057 16.1402 4.39052 16.3902C4.14048 16.6402 4 16.9794 4 17.333V25.333C4 25.6866 4.14048 26.0258 4.39052 26.2758C4.64057 26.5259 4.97971 26.6663 5.33333 26.6663M12 25.333C12 25.6866 11.8595 26.0258 11.6095 26.2758C11.3594 26.5259 11.0203 26.6663 10.6667 26.6663H5.33333M12 25.333C12 25.6866 12.1405 26.0258 12.3905 26.2758C12.6406 26.5259 12.9797 26.6663 13.3333 26.6663H18.6667C19.0203 26.6663 19.3594 26.5259 19.6095 26.2758C19.8595 26.0258 20 25.6866 20 25.333M12 25.333V11.9997C12 11.6461 12.1405 11.3069 12.3905 11.0569C12.6406 10.8068 12.9797 10.6663 13.3333 10.6663H18.6667C19.0203 10.6663 19.3594 10.8068 19.6095 11.0569C19.8595 11.3069 20 11.6461 20 11.9997V25.333M5.33333 26.6663H24M20 25.333C20 25.6866 20.1405 26.0258 20.3905 26.2758C20.6406 26.5259 20.9797 26.6663 21.3333 26.6663H26.6667C27.0203 26.6663 27.3594 26.5259 27.6095 26.2758C27.8595 26.0258 28 25.6866 28 25.333V6.66634C28 6.31272 27.8595 5.97358 27.6095 5.72353C27.3594 5.47348 27.0203 5.33301 26.6667 5.33301H21.3333C20.9797 5.33301 20.6406 5.47348 20.3905 5.72353C20.1405 5.97358 20 6.31272 20 6.66634V25.333Z" stroke="white" stroke-width="2" stroke-linecap="round" stroke-linejoin="round"/>
</svg>
