<svg width="32" height="33" viewBox="0 0 32 33" fill="none" xmlns="http://www.w3.org/2000/svg">
<path d="M16 3.5918C13.4288 3.5918 10.9154 4.35423 8.77759 5.78269C6.63975 7.21115 4.97351 9.24147 3.98957 11.6169C3.00563 13.9924 2.74819 16.6062 3.2498 19.128C3.75141 21.6497 4.98953 23.9661 6.80762 25.7842C8.6257 27.6023 10.9421 28.8404 13.4638 29.342C15.9856 29.8436 18.5995 29.5862 20.9749 28.6022C23.3503 27.6183 25.3807 25.952 26.8091 23.8142C28.2376 21.6764 29 19.163 29 16.5918C28.9964 13.1451 27.6256 9.84061 25.1884 7.40343C22.7512 4.96624 19.4467 3.59544 16 3.5918ZM16 27.5918C13.8244 27.5918 11.6977 26.9467 9.88873 25.738C8.07979 24.5293 6.66989 22.8113 5.83733 20.8013C5.00477 18.7913 4.78693 16.5796 5.21137 14.4458C5.63581 12.312 6.68345 10.352 8.22183 8.81362C9.76021 7.27524 11.7202 6.2276 13.854 5.80316C15.9878 5.37872 18.1995 5.59656 20.2095 6.42912C22.2195 7.26169 23.9375 8.67158 25.1462 10.4805C26.3549 12.2895 27 14.4162 27 16.5918C26.9967 19.5082 25.8367 22.3041 23.7745 24.3663C21.7123 26.4285 18.9164 27.5885 16 27.5918ZM10 14.0918C10 13.7951 10.088 13.5051 10.2528 13.2584C10.4176 13.0118 10.6519 12.8195 10.926 12.706C11.2001 12.5924 11.5017 12.5627 11.7926 12.6206C12.0836 12.6785 12.3509 12.8214 12.5607 13.0311C12.7704 13.2409 12.9133 13.5082 12.9712 13.7992C13.0291 14.0901 12.9994 14.3917 12.8858 14.6658C12.7723 14.9399 12.58 15.1742 12.3334 15.339C12.0867 15.5038 11.7967 15.5918 11.5 15.5918C11.1022 15.5918 10.7206 15.4338 10.4393 15.1525C10.158 14.8712 10 14.4896 10 14.0918ZM22 14.0918C22 14.3885 21.912 14.6785 21.7472 14.9252C21.5824 15.1718 21.3481 15.3641 21.074 15.4776C20.7999 15.5911 20.4983 15.6209 20.2074 15.563C19.9164 15.5051 19.6491 15.3622 19.4393 15.1525C19.2296 14.9427 19.0867 14.6754 19.0288 14.3844C18.971 14.0935 19.0007 13.7919 19.1142 13.5178C19.2277 13.2437 19.42 13.0094 19.6667 12.8446C19.9133 12.6798 20.2033 12.5918 20.5 12.5918C20.8978 12.5918 21.2794 12.7498 21.5607 13.0311C21.842 13.3124 22 13.694 22 14.0918ZM21.8663 20.0918C20.58 22.3155 18.4413 23.5918 16 23.5918C13.5588 23.5918 11.4213 22.3168 10.135 20.0918C10.0627 19.978 10.0141 19.8507 9.99218 19.7176C9.97029 19.5845 9.97555 19.4484 10.0076 19.3174C10.0397 19.1864 10.098 19.0633 10.1789 18.9554C10.2598 18.8475 10.3617 18.757 10.4785 18.6896C10.5952 18.6221 10.7245 18.5789 10.8583 18.5626C10.9922 18.5464 11.128 18.5573 11.2575 18.5949C11.3871 18.6325 11.5077 18.6959 11.6121 18.7813C11.7164 18.8667 11.8025 18.9723 11.865 19.0918C12.7988 20.7055 14.2663 21.5918 16 21.5918C17.7338 21.5918 19.2013 20.7043 20.1338 19.0918C20.2664 18.8621 20.4848 18.6944 20.741 18.6257C20.9972 18.557 21.2703 18.5929 21.5 18.7255C21.7297 18.8582 21.8974 19.0766 21.9661 19.3328C22.0348 19.589 21.9989 19.8621 21.8663 20.0918Z" fill="white"/>
</svg>
